<?xml version="1.0" encoding="UTF-8"?>
<!-- Generator: visioncortex VTracer 0.6.5 -->
<svg version="1.1" xmlns="http://www.w3.org/2000/svg" width="1024" height="1024">
<path d="M0 0 C337.92 0 675.84 0 1024 0 C1024 337.92 1024 675.84 1024 1024 C686.08 1024 348.16 1024 0 1024 C0 686.08 0 348.16 0 0 Z M240.19 249.94 C226.2 267.76 222.92 285.9 224 308 C226.76 328.03 237.21 343.55 252 357 C264.83 365.64 277.81 372.24 293.46 372.26 C295.15 372.27 296.83 372.27 298.57 372.28 C300.41 372.28 302.25 372.28 304.15 372.27 C306.11 372.28 308.07 372.28 310.1 372.29 C316.69 372.31 323.29 372.31 329.88 372.31 C334.61 372.31 339.33 372.32 344.05 372.33 C356.89 372.35 369.74 372.36 382.58 372.37 C390.6 372.37 398.63 372.38 406.65 372.38 C428.87 372.4 451.09 372.42 473.31 372.42 C474.02 372.42 474.02 372.42 477.62 372.42 C480.5 372.42 483.38 372.42 486.27 372.42 C486.98 372.43 486.98 372.43 490.6 372.43 C492.03 372.43 493.47 372.43 494.94 372.43 C518.15 372.43 541.35 372.46 564.55 372.49 C588.39 372.53 612.22 372.55 636.05 372.55 C649.43 372.55 662.81 372.56 676.18 372.59 C688.77 372.62 701.35 372.62 713.94 372.6 C718.55 372.6 723.17 372.61 727.79 372.62 C734.09 372.64 740.4 372.63 746.71 372.61 C747.62 372.62 747.62 372.62 752.23 372.65 C775.88 372.5 794.79 364.21 811.62 347.38 C821.82 334.85 829.26 320.37 830 304 C853.01 306.61 872.29 317 888 334 C905.61 356.95 911.61 381.37 910 410 C907.27 430.31 899.28 448.33 886 464 C884.68 465.65 883.36 467.3 882 469 C865.55 482.37 849.98 489.75 829 493 C828.97 492.38 828.97 492.38 828.81 489.25 C826.25 472.71 816.14 458.13 804 447 C799.46 443.68 794.86 440.87 790 438 C788.35 437.01 786.7 436.02 785 435 C775.2 432.2 766.09 429.88 755.89 429.87 C754.23 429.86 752.57 429.86 750.86 429.86 C749.04 429.86 747.22 429.86 745.35 429.86 C743.41 429.86 741.48 429.85 739.49 429.85 C732.97 429.84 726.46 429.84 719.95 429.84 C715.3 429.83 710.64 429.83 705.98 429.82 C693.31 429.81 680.64 429.8 667.97 429.8 C660.06 429.8 652.14 429.79 644.23 429.79 C622.31 429.78 600.4 429.77 578.49 429.76 C577.08 429.76 575.68 429.76 574.24 429.76 C573.53 429.76 573.53 429.76 569.98 429.76 C567.13 429.76 564.28 429.76 561.43 429.76 C560.72 429.76 560.72 429.76 557.15 429.76 C534.26 429.76 511.37 429.74 488.47 429.71 C464.97 429.69 441.46 429.68 417.96 429.68 C404.76 429.68 391.57 429.67 378.37 429.65 C365.96 429.64 353.54 429.63 341.13 429.64 C336.57 429.64 332.02 429.64 327.46 429.63 C321.24 429.62 315.02 429.62 308.8 429.63 C307 429.62 305.2 429.62 303.34 429.61 C278.12 429.71 259.33 436.67 241.31 454.69 C232.07 466.08 224 479.97 224 495 C222.86 495.03 222.86 495.03 217.06 495.19 C187.93 497.09 163.95 513.8 145 535 C124.78 561.02 116.39 591.32 118 624 C118.88 630.25 118.88 630.25 120 635 C120.29 636.44 120.58 637.89 120.88 639.38 C128.69 671.5 147.93 697.71 176 715 C184.64 719.94 193.41 723.33 203 726 C205.31 726.66 207.62 727.32 210 728 C214.66 728.39 219.33 728.73 224 729 C224.19 729.87 224.19 729.87 225.12 734.25 C231.13 755.88 245.8 772.07 265 783 C279.2 789.74 293.24 790.44 308.67 790.39 C310.62 790.4 312.57 790.41 314.57 790.41 C321.08 790.43 327.58 790.42 334.09 790.42 C338.76 790.43 343.44 790.44 348.11 790.45 C360.79 790.47 373.47 790.47 386.15 790.47 C396.74 790.47 407.32 790.48 417.91 790.49 C444.33 790.51 470.74 790.51 497.15 790.5 C520.06 790.49 542.98 790.52 565.89 790.55 C589.44 790.58 612.99 790.6 636.55 790.59 C649.76 790.59 662.97 790.6 676.19 790.62 C688.61 790.64 701.04 790.64 713.47 790.62 C718.02 790.62 722.58 790.62 727.13 790.64 C733.36 790.65 739.59 790.64 745.82 790.62 C747.61 790.63 749.41 790.65 751.26 790.66 C775.12 790.49 793.12 782.88 810 766 C825.58 748.59 830.5 729.57 830.34 706.5 C829.14 686.86 819.56 671.72 806 658 C804.8 656.78 803.61 655.57 802.38 654.31 C786 641.91 770.44 638.55 750.29 638.61 C749.3 638.6 749.3 638.6 744.27 638.59 C737.61 638.57 730.95 638.58 724.28 638.58 C719.51 638.57 714.73 638.56 709.96 638.55 C698.33 638.53 686.71 638.53 675.08 638.53 C665.63 638.53 656.18 638.53 646.73 638.52 C644 638.52 641.28 638.52 638.56 638.51 C637.2 638.51 635.84 638.51 634.45 638.51 C608.81 638.49 583.18 638.49 557.54 638.5 C534.1 638.51 510.66 638.48 487.22 638.45 C463.14 638.42 439.06 638.4 414.98 638.41 C401.47 638.41 387.95 638.4 374.44 638.38 C361.73 638.36 349.02 638.36 336.31 638.38 C331.65 638.38 326.99 638.38 322.32 638.36 C315.95 638.35 309.59 638.36 303.22 638.38 C301.37 638.37 299.53 638.35 297.63 638.34 C275.65 638.49 258.59 646.58 243 662 C231.69 673.86 224 688.39 224 705 C200.93 704.15 181.68 692.68 165.69 676.69 C147.71 654.87 140.67 629.86 142 602 C145.17 576.27 156.9 552.51 177.12 536 C191.4 526.28 206.63 519.42 224 518 C224.1 518.76 224.1 518.76 224.62 522.62 C228.56 540.89 238.84 556.2 253.56 567.5 C270.35 578.31 284.04 581.45 303.55 581.39 C304.54 581.39 304.54 581.39 309.52 581.4 C316.13 581.42 322.73 581.41 329.33 581.4 C334.07 581.41 338.8 581.42 343.54 581.42 C356.4 581.44 369.26 581.44 382.12 581.44 C390.15 581.43 398.19 581.44 406.22 581.44 C407.56 581.44 408.89 581.44 410.27 581.44 C412.98 581.44 415.69 581.45 418.4 581.45 C443.82 581.46 469.24 581.46 494.66 581.44 C517.9 581.43 541.13 581.45 564.37 581.47 C588.25 581.5 612.12 581.51 636 581.5 C649.4 581.49 662.8 581.5 676.19 581.51 C688.8 581.53 701.4 581.53 714 581.51 C718.62 581.5 723.25 581.51 727.87 581.52 C734.18 581.53 740.5 581.52 746.81 581.5 C747.73 581.51 747.73 581.51 752.34 581.53 C772.77 581.41 789.9 576.31 805.44 562.69 C818.02 549.82 829 534.66 829 516 C830.34 516.08 831.68 516.16 833.06 516.25 C858.47 515.18 881.61 501.02 899.94 484.44 C923.5 458.7 934.91 427.41 934.35 392.66 C932.51 362.71 921.79 335.9 901 314 C899.31 312.19 897.62 310.37 895.88 308.5 C878.41 291.31 852.52 280 828 280 C827.67 278.02 827.34 276.04 827 274 C819.76 253.39 806.99 239.7 788.06 229.12 C774.71 223.22 762.54 222.57 748.19 222.61 C746.22 222.61 744.25 222.6 742.21 222.6 C735.61 222.58 729.01 222.59 722.41 222.6 C717.67 222.59 712.93 222.58 708.2 222.58 C695.33 222.56 682.47 222.56 669.61 222.56 C661.58 222.57 653.54 222.56 645.51 222.56 C644.17 222.56 642.84 222.56 641.46 222.56 C638.75 222.56 636.04 222.55 633.33 222.55 C607.91 222.54 582.5 222.54 557.08 222.56 C533.84 222.57 510.6 222.55 487.36 222.53 C463.49 222.5 439.61 222.49 415.73 222.5 C402.33 222.51 388.93 222.5 375.53 222.49 C362.93 222.47 350.34 222.47 337.74 222.49 C333.11 222.5 328.49 222.49 323.87 222.48 C317.55 222.47 311.24 222.48 304.93 222.5 C303.1 222.49 301.27 222.48 299.39 222.47 C274.22 222.61 257.4 232.16 240.19 249.94 Z " fill="#000000" transform="translate(0,0)"/>
<path d="M0 0 C1.97 -0 3.95 -0.01 5.98 -0.01 C12.59 -0.03 19.19 -0.02 25.8 -0.01 C30.54 -0.01 35.28 -0.02 40.02 -0.02 C52.89 -0.04 65.76 -0.03 78.63 -0.02 C86.67 -0.02 94.71 -0.02 102.74 -0.02 C103.41 -0.02 103.41 -0.02 106.79 -0.02 C109.5 -0.02 112.21 -0.02 114.93 -0.02 C140.35 -0.03 165.78 -0.02 191.21 -0.01 C213.01 0.01 234.82 0 256.63 -0.01 C281.96 -0.03 307.3 -0.03 332.63 -0.02 C335.33 -0.02 338.04 -0.02 340.74 -0.02 C342.07 -0.02 343.4 -0.02 344.77 -0.02 C354.13 -0.02 363.49 -0.02 372.85 -0.03 C385.46 -0.04 398.06 -0.03 410.67 -0.01 C415.29 -0.01 419.92 -0.01 424.55 -0.02 C430.86 -0.03 437.17 -0.01 443.49 0 C445.32 -0.01 447.16 -0.01 449.04 -0.02 C468.51 0.07 484.15 4.59 499.31 17.38 C501.29 19.03 503.27 20.68 505.31 22.38 C513.32 31.42 523.31 44.73 523.31 57.38 C525.95 57.38 528.59 57.38 531.31 57.38 C555.36 60.94 576.03 71.48 593.31 88.38 C595 89.95 596.69 91.52 598.43 93.13 C620.77 117.19 630.17 148.59 629.58 180.9 C627.88 214.97 613.13 244.27 588.68 267.88 C570.59 282.36 548.1 294.45 524.31 293.38 C524.2 294.68 524.1 295.98 524 297.32 C521.59 315.04 511.43 330.59 498.31 342.38 C480.06 354.91 464.3 358.84 442.52 358.78 C440.54 358.78 438.57 358.79 436.54 358.79 C429.94 358.81 423.35 358.81 416.75 358.8 C412.01 358.81 407.28 358.82 402.54 358.83 C389.69 358.85 376.84 358.85 363.98 358.85 C355.95 358.85 347.92 358.85 339.89 358.86 C337.19 358.86 334.49 358.86 331.79 358.87 C330.45 358.87 329.1 358.87 327.72 358.87 C302.31 358.89 276.91 358.89 251.5 358.88 C228.28 358.88 205.05 358.9 181.83 358.93 C157.96 358.96 134.09 358.98 110.23 358.97 C96.84 358.97 83.44 358.98 70.05 359 C57.46 359.02 44.87 359.02 32.27 359 C27.65 359 23.03 359 18.41 359.02 C12.1 359.04 5.79 359.02 -0.52 359 C-2.34 359.01 -4.17 359.03 -6.05 359.04 C-27.49 358.89 -45.23 351.63 -60.65 336.72 C-71.49 324.84 -78.38 311.36 -80.69 295.38 C-99.38 297.69 -114.74 303.9 -129.69 315.38 C-131.01 316.39 -132.33 317.4 -133.69 318.44 C-152.77 337.22 -162.62 362.6 -163 389.19 C-162.85 414.62 -153.52 437.31 -136.69 456.38 C-121.19 471.68 -102.44 481.12 -80.69 482.38 C-80.69 480.07 -80.69 477.76 -80.69 475.38 C-74.78 453.26 -62.67 435.99 -42.69 424.38 C-29.38 416.86 -16.67 415.8 -1.73 415.87 C0.26 415.87 2.25 415.86 4.3 415.85 C10.96 415.84 17.62 415.85 24.28 415.86 C29.06 415.86 33.84 415.85 38.62 415.84 C50.24 415.83 61.87 415.83 73.5 415.84 C82.95 415.85 92.4 415.85 101.85 415.85 C103.19 415.85 104.54 415.84 105.93 415.84 C108.66 415.84 111.4 415.84 114.13 415.84 C139.76 415.83 165.39 415.84 191.02 415.86 C213.01 415.88 234.99 415.88 256.97 415.86 C282.51 415.84 308.05 415.83 333.59 415.84 C336.32 415.84 339.04 415.84 341.77 415.85 C343.11 415.85 344.45 415.85 345.83 415.85 C355.27 415.85 364.7 415.85 374.14 415.84 C386.85 415.82 399.55 415.83 412.26 415.86 C416.92 415.86 421.59 415.86 426.25 415.85 C432.62 415.84 438.98 415.85 445.34 415.87 C447.19 415.86 449.04 415.86 450.94 415.85 C473.18 415.98 489.78 423.85 505.31 439.38 C518.79 453.09 525.48 470.02 525.81 489.07 C525.21 512.58 517.19 530.33 501.5 547.57 C496.75 551.89 491.81 555.09 486.31 558.38 C485.21 559.05 484.11 559.72 482.98 560.41 C469.88 567.43 455.69 568.11 441.14 568.01 C440.17 568.01 440.17 568.01 435.23 568.03 C428.73 568.05 422.23 568.03 415.73 568.01 C411.06 568.02 406.38 568.02 401.7 568.03 C389.03 568.05 376.36 568.04 363.69 568.02 C351.76 568 339.84 568.01 327.92 568.02 C304.29 568.02 280.66 568.01 257.03 567.98 C234.13 567.95 211.23 567.94 188.32 567.96 C163.35 567.97 138.38 567.98 113.41 567.96 C100.2 567.95 87 567.95 73.79 567.96 C61.37 567.96 48.96 567.95 36.54 567.92 C31.99 567.92 27.43 567.92 22.88 567.93 C16.66 567.93 10.44 567.92 4.22 567.9 C2.42 567.9 0.63 567.91 -1.23 567.92 C-24.17 567.77 -42.75 561.04 -59.94 545.69 C-70.4 534 -77.21 521.69 -80.69 506.38 C-82.65 506.32 -84.61 506.26 -86.63 506.19 C-114.62 504.18 -140.43 488.06 -158.69 467.38 C-171.55 450.69 -180.54 433.12 -184.69 412.38 C-185.06 410.81 -185.43 409.25 -185.82 407.63 C-190.48 374.33 -181.49 341.93 -161.66 315.01 C-153.31 304.81 -143.93 295.33 -132.69 288.38 C-130.84 287.21 -128.98 286.03 -127.07 284.82 C-112.37 276.89 -97.51 272.38 -80.69 272.38 C-80.63 271.18 -80.57 269.99 -80.5 268.76 C-77.53 249.06 -66.24 232.84 -50.94 220.57 C-33.06 209.71 -16.66 206.92 4.05 207 C5.99 207 7.94 206.99 9.94 206.99 C16.42 206.97 22.91 206.98 29.39 206.99 C34.05 206.99 38.71 206.98 43.37 206.98 C56.01 206.96 68.65 206.97 81.28 206.98 C93.17 206.98 105.06 206.98 116.95 206.98 C141.92 206.97 166.9 206.98 191.88 206.99 C213.3 207.01 234.72 207 256.13 206.99 C281.03 206.97 305.92 206.97 330.81 206.98 C343.98 206.98 357.15 206.98 370.32 206.97 C382.7 206.96 395.08 206.97 407.46 206.99 C412 206.99 416.54 206.99 421.09 206.98 C427.29 206.97 433.49 206.99 439.69 207 C440.59 207 440.59 207 445.14 206.98 C469.79 207.09 489.25 214.32 506.93 232.01 C515.64 242.7 524.31 256.27 524.31 270.38 C551.64 265.11 573.02 254.68 589.31 231.38 C604.37 207.93 609.2 180.21 603.75 152.82 C597.45 128.54 583.54 106.59 561.91 93.29 C550.56 86.9 538.46 82.09 525.31 81.38 C525.29 82.04 525.29 82.04 525.18 85.38 C522.39 104.5 512.13 121.89 497.1 133.96 C479.78 146.38 463.22 149.99 442.42 149.89 C441.43 149.89 441.43 149.89 436.45 149.91 C429.86 149.92 423.28 149.91 416.69 149.9 C411.97 149.9 407.24 149.91 402.51 149.92 C389.68 149.94 376.85 149.93 364.02 149.92 C356 149.91 347.99 149.91 339.97 149.92 C338.64 149.92 337.31 149.92 335.94 149.92 C333.23 149.92 330.53 149.92 327.82 149.92 C302.47 149.93 277.11 149.92 251.76 149.9 C230.01 149.88 208.27 149.88 186.53 149.9 C161.26 149.92 136 149.93 110.73 149.92 C108.03 149.92 105.34 149.92 102.64 149.92 C101.98 149.92 101.98 149.92 98.62 149.91 C89.29 149.91 79.96 149.92 70.62 149.93 C58.06 149.94 45.49 149.93 32.92 149.91 C28.31 149.9 23.7 149.9 19.08 149.91 C12.79 149.92 6.49 149.91 0.2 149.89 C-0.72 149.89 -0.72 149.89 -5.33 149.92 C-27.39 149.78 -43.78 142.13 -60.19 127.32 C-76.7 109.21 -81.58 89.41 -80.69 65.38 C-78.72 45.25 -67.8 28.35 -52.69 15.38 C-48.46 12.39 -44.23 9.92 -39.69 7.38 C-38.35 6.62 -37.01 5.85 -35.63 5.07 C-23.88 0.03 -12.54 -0.05 0 0 Z M399.31 42.38 C398.09 43.43 396.87 44.48 395.62 45.57 C386.81 55.71 384.88 66.02 384.96 78.94 C385.89 90.97 391.7 99.85 400.06 108.07 C411.54 117.01 421.21 118.23 435.31 117.38 C449.77 113.5 458.87 105.36 466.81 92.88 C469.37 85.2 469.21 81.01 468.68 73.07 C468.42 65.44 468.3 61.76 472.85 55.53 C477.31 51.38 477.31 51.38 481.81 47.88 C485.31 44.38 485.31 44.38 486.12 39.69 C485.31 35.38 485.31 35.38 480.31 31.38 C472.12 31.38 470 34.76 464.31 40.38 C462.99 42.03 461.67 43.68 460.31 45.38 C456.31 43.38 456.31 43.38 450.31 38.38 C432.67 28.39 414.85 28.69 399.31 42.38 Z M396.31 253.38 C386.5 265.56 383.78 277.04 385.31 292.38 C389.2 306 396.14 315.14 408.31 322.38 C421.56 327.88 431.96 327.44 445.31 322.38 C455.62 316.83 461.39 310.31 467.31 300.32 C469.38 293.11 469.13 288.42 468.68 281.01 C468.35 269.73 468.35 269.73 472.59 263.72 C476.35 260.3 480.16 257.3 484.31 254.38 C485.31 252.38 485.31 252.38 485.31 244.38 C483.99 243.06 482.67 241.74 481.31 240.38 C474.31 240.38 474.31 240.38 470.56 243.44 C469.34 244.74 468.13 246.04 466.87 247.38 C465.63 248.68 464.4 249.98 463.12 251.32 C462.19 252.33 461.27 253.34 460.31 254.38 C456.31 252.38 456.31 252.38 452.25 249.01 C434 235.61 412.57 238.22 396.31 253.38 Z M394.43 464.51 C385.63 475.42 383.99 486.74 385.31 500.38 C389.1 513.24 395.2 521.88 406.31 529.38 C417.15 535.04 426.74 535.83 438.68 533.19 C451.72 528.08 459.35 521.56 466.31 509.38 C469.42 502.04 469.23 496.58 468.56 488.69 C468.4 481.43 468.36 477.72 472.6 471.74 C476.35 468.3 480.11 465.26 484.31 462.38 C484.64 462.05 484.97 461.72 485.31 461.38 C485.31 458.74 485.31 456.1 485.31 453.38 C483.99 452.06 482.67 450.74 481.31 449.38 C473.31 449.38 473.31 449.38 469.46 452.44 C468.26 453.74 467.05 455.04 465.81 456.38 C464.58 457.68 463.35 458.98 462.09 460.32 C461.17 461.33 460.25 462.34 459.31 463.38 C458.19 462.33 457.08 461.28 455.93 460.19 C435.97 443.73 411.88 445.94 394.43 464.51 Z " fill="#FCFCFC" transform="translate(304.69212341308594,222.61904907226563)"/>
<path d="M0 0 C5.24 3.36 8.09 6.11 12 11 C4.45 19.39 -3.36 27.42 -11.4 35.34 C-15 39 -15 39 -20 45 C-24.99 43.75 -26.59 41.68 -30.12 38 C-35.83 32.08 -35.83 32.08 -38 31 C-40.64 31 -43.28 31 -46 31 C-46.94 35 -46.94 35 -47 40 C-44.44 43.69 -44.44 43.69 -40 48 C-38.9 49.18 -37.8 50.36 -36.66 51.58 C-26.9 61.87 -26.9 61.87 -19 63 C-15.5 60.49 -15.5 60.49 -11 56 C-9.9 54.92 -8.8 53.84 -7.66 52.73 C-3.77 48.91 0.08 45.05 3.94 41.19 C5.28 39.85 6.61 38.52 7.99 37.14 C9.26 35.87 10.53 34.6 11.84 33.29 C12.42 32.71 12.42 32.71 15.35 29.78 C18 27 18 27 19 25 C19.66 25 20.32 25 21 25 C24.48 35.43 23.19 48.06 18.5 57.81 C11.75 69.42 4.01 74.55 -8 80 C-18.56 82.64 -30.4 82.27 -40 77 C-51.7 68.89 -57.5 60.49 -62 47 C-62.78 33.02 -61.67 22.45 -53 11 C-37.58 -5.92 -20.85 -8.27 0 0 Z " fill="#040404" transform="translate(752,259)"/>
<path d="M0 0 C8.38 5.75 8.38 5.75 11 11 C0 22 -11 33 -22 44 C-28.14 40.93 -32.21 35.85 -37 31 C-39 30 -39 30 -45 30 C-45.99 30.99 -46.98 31.98 -48 33 C-48 40.73 -46.34 41.51 -41 47 C-39.9 48.2 -38.8 49.39 -37.66 50.62 C-36.45 51.9 -35.25 53.18 -34 54.5 C-32.85 55.73 -31.69 56.95 -30.5 58.22 C-27 61 -27 61 -20 61 C-15.63 58.27 -12.37 55.42 -8.99 51.53 C-3.94 45.79 1.41 40.4 6.81 35 C7.86 33.94 8.91 32.88 9.99 31.79 C12.62 29.15 15.31 26.57 18 24 C18.66 24 19.32 24 20 24 C23.05 33.14 21.56 44.04 19 53.06 C12.05 66.82 3.34 73.84 -11 79 C-22.32 81.83 -31.78 80.34 -42 75 C-53.1 67.5 -59.21 58.86 -63 46 C-64.4 31.44 -62.24 20.62 -53 9 C-37.86 -6.14 -19.36 -9.48 0 0 Z " fill="#040505" transform="translate(753,677)"/>
<path d="M0 0 C5.89 3.64 9.67 6.58 14 12 C3.4 23.74 -7.77 34.87 -19 46 C-22.93 42.7 -26.51 39.46 -30 35.69 C-34 32 -34 32 -41 31 C-42.32 32.32 -43.64 33.64 -45 35 C-45 45.65 -34.99 52.13 -27.79 59.34 C-23.18 63.74 -23.28 63 -16 63 C-10.35 58.72 -5.66 53.65 -0.88 48.44 C4.28 42.89 9.49 37.39 14.81 32 C15.95 30.85 17.09 29.69 18.27 28.5 C21 26 21 26 23 26 C26.07 35.2 24.74 46.56 22 55.62 C14.95 68.26 7.15 75.29 -6.44 80.44 C-17.76 83.13 -26.26 82.52 -37 78 C-48.74 70.73 -56.59 61.52 -60 48 C-61.34 32.6 -58.87 21.25 -49 9 C-34.28 -4.73 -18.59 -7.18 0 0 Z " fill="#040505" transform="translate(750,467)"/>
<path d="M0 0 C5 4 5 4 5.84 8.18 C4.67 14.9 1.53 17.43 -3.38 22.06 C-4.93 23.56 -6.48 25.06 -8.09 26.6 C-12 30 -12 30 -14 30 C-14.66 31.32 -15.32 32.64 -16 34 C-17.95 36.14 -19.95 38.22 -22 40.26 C-22.6 40.86 -22.6 40.86 -25.63 43.9 C-26.88 45.15 -28.14 46.4 -29.44 47.69 C-30.69 48.95 -31.94 50.21 -33.24 51.51 C-34.44 52.71 -35.64 53.9 -36.87 55.14 C-37.97 56.24 -39.08 57.34 -40.21 58.47 C-43.9 61.81 -45.49 61.97 -50.5 62.25 C-55 62 -55 62 -58 59 C-58 54 -58 54 -53 49 C-51.25 47.08 -49.49 45.16 -47.69 43.19 C-41.57 36.53 -35.2 30.16 -28.76 23.82 C-25.01 20.01 -21.49 16.06 -18 12 C-7.56 0 -7.56 0 0 0 Z " fill="#05BFDB" transform="translate(785,254)"/>
<path d="M0 0 C4 4 4 4 4 12 C-0.54 18.19 -6.23 22.97 -12 28 C-12.83 28.82 -12.83 28.82 -17 33 C-18.54 34.52 -20.07 36.05 -21.65 37.62 C-23.4 39.35 -25.14 41.09 -26.94 42.88 C-28.68 44.6 -30.42 46.33 -32.21 48.12 C-35.05 51.01 -37.82 53.98 -40.44 57.07 C-43 60 -43 60 -46 61 C-51 61.25 -51 61.25 -56 61 C-56.99 60.01 -57.98 59.02 -59 58 C-56.75 46.74 -43.8 37.74 -35.8 29.84 C-30.31 24.39 -25.04 18.88 -20 13 C-17.86 10.64 -15.7 8.3 -13.5 6 C-12.44 4.87 -11.38 3.73 -10.28 2.56 C-7 0 -7 0 0 0 Z " fill="#06C1DE" transform="translate(786,463)"/>
<path d="M0 0 C4 4 4 4 4 12 C-0.98 17.58 -6.26 22.21 -12 27 C-12.83 27.83 -12.83 27.83 -17 32 C-27 42 -37 52 -47 62 C-52.24 61.92 -54.24 61.76 -58 58 C-58 48.6 -51.42 44.39 -45.09 38.03 C-41.79 34.75 -38.47 31.47 -35.16 28.2 C-29.55 22.63 -24.13 17.02 -19 11 C-9.31 0 -9.31 0 0 0 Z " fill="#06BFDC" transform="translate(786,672)"/>
<path d="M0 0 C7.94 1.13 9.13 2.45 14.44 8.06 C15.67 9.35 16.91 10.64 18.18 11.97 C19.11 12.97 20.04 13.97 21 15 C20.67 15.83 20.67 15.83 19 20 C20 25 20 25 21 26 C25 26.04 29 26.04 33 26 C27.25 32.88 27.25 32.88 25 34 C16.42 34 15.94 32.86 10 27 C8.82 25.84 7.63 24.68 6.41 23.49 C-3.79 13.42 -3.79 13.42 -5 11 C-5 5 -5 5 0 0 Z " fill="#EFF1F1" transform="translate(709,497)"/>
<path d="M0 0 C9 0 12.31 5.33 18.5 11.44 C19.65 12.61 20.81 13.79 22 15 C21.34 16.32 20.68 17.64 20 19 C20 20.65 20 22.3 20 24 C22 26 22 26 27.62 26.12 C29.4 26.08 31.17 26.04 33 26 C30.44 29.44 30.44 29.44 27 33 C20 34 20 34 16.5 31.5 C15.01 30.01 13.53 28.53 12 27 C10.74 25.77 9.49 24.53 8.19 23.26 C-2.78 12.43 -2.78 12.43 -4 10 C-4 4 -4 4 0 0 Z " fill="#F3F4F5" transform="translate(708,289)"/>
<path d="M0 0 C7.57 0 8.69 1.85 14 7 C15.51 8.28 17.01 9.56 18.56 10.88 C22 15 22 15 21.88 19.88 C21.59 21.24 21.3 22.6 21 24 C23.95 26.95 26.96 26.61 31 27 C27 32 27 32 25 33 C18 33 18 33 12.76 28.48 C10.86 26.54 8.99 24.59 7.12 22.62 C6.64 22.13 6.64 22.13 4.21 19.64 C-4 11.17 -4 11.17 -4 4 C-2.68 2.68 -1.36 1.36 0 0 Z " fill="#F3F5F5" transform="translate(708,706)"/>
</svg>
